<?xml version="1.0" standalone="no"?>
<!DOCTYPE svg PUBLIC "-//W3C//DTD SVG 20010904//EN"
 "http://www.w3.org/TR/2001/REC-SVG-20010904/DTD/svg10.dtd">
<svg version="1.0" xmlns="http://www.w3.org/2000/svg"
 width="1196.000000pt" height="1196.000000pt" viewBox="0 0 1196.000000 1196.000000"
 preserveAspectRatio="xMidYMid meet">
<metadata>
Created by potrace 1.14, written by Peter Selinger 2001-2017
</metadata>
<g transform="translate(0.000000,1196.000000) scale(0.100000,-0.100000)"
fill="#000000" stroke="none">
<path d="M7268 10345 c-2 -2 -52 -6 -113 -10 -161 -10 -226 -17 -362 -41 -48
-8 -97 -16 -108 -17 -11 -2 -26 -6 -32 -10 -7 -5 -13 -6 -13 -2 0 3 -8 1 -18
-4 -11 -6 -30 -12 -43 -14 -41 -8 -231 -73 -289 -100 -30 -14 -62 -27 -70 -29
-8 -2 -21 -9 -28 -16 -8 -7 -17 -10 -22 -7 -5 3 -10 2 -12 -2 -1 -5 -19 -16
-38 -25 -40 -20 -113 -61 -120 -68 -3 -3 -16 -11 -30 -19 -100 -55 -296 -226
-384 -335 -17 -22 -39 -47 -48 -58 -10 -10 -15 -18 -10 -18 4 0 2 -4 -4 -8
-38 -24 -173 -271 -229 -419 -21 -54 -44 -112 -51 -130 -8 -17 -14 -35 -14
-40 0 -5 -12 -38 -26 -74 -14 -35 -27 -68 -28 -74 -2 -5 -8 -23 -14 -38 l-12
-28 -30 21 c-17 12 -61 51 -98 87 -116 114 -170 151 -279 194 -46 18 -179 19
-237 2 -105 -31 -175 -81 -312 -222 l-92 -94 -58 22 c-33 13 -72 29 -89 36
-250 109 -601 225 -750 248 -16 3 -41 8 -55 11 -44 10 -135 23 -219 31 -30 2
-56 7 -59 9 -2 3 -13 1 -23 -5 -11 -5 -19 -6 -19 -1 0 10 -264 8 -345 -2 -27
-3 -68 -8 -90 -11 -22 -2 -51 -7 -65 -10 -14 -3 -38 -8 -55 -11 -44 -9 -60
-12 -60 -14 0 -1 -11 -4 -25 -7 -39 -7 -55 -11 -55 -13 0 -1 -7 -3 -15 -5 -8
-2 -34 -10 -58 -19 -23 -8 -44 -15 -47 -15 -3 -1 -21 -8 -41 -16 -20 -8 -38
-15 -40 -15 -19 0 -266 -131 -295 -156 -8 -8 -19 -14 -23 -14 -9 0 -80 -52
-84 -62 -2 -5 -8 -8 -13 -8 -5 0 -17 -8 -27 -17 -10 -10 -47 -43 -81 -72 -86
-75 -166 -158 -231 -241 -14 -18 -30 -37 -35 -44 -6 -6 -36 -47 -66 -91 -100
-146 -197 -330 -266 -505 -36 -90 -67 -173 -68 -180 0 -3 -10 -36 -22 -75 -25
-80 -54 -191 -58 -220 -1 -11 -5 -27 -8 -35 -6 -14 -9 -30 -23 -123 -8 -48
-12 -72 -14 -72 -1 0 -3 -13 -5 -30 -2 -16 -7 -50 -11 -75 -7 -50 -10 -69 -19
-150 -3 -30 -8 -68 -11 -85 -3 -16 -7 -56 -9 -90 -3 -33 -7 -78 -10 -100 -3
-22 -7 -71 -9 -110 -3 -38 -5 -70 -6 -70 -1 0 -3 -34 -5 -75 -2 -41 -6 -106
-9 -145 -27 -351 -27 -1131 0 -1465 3 -36 6 -81 7 -100 1 -19 5 -39 7 -45 3
-5 5 -36 5 -67 0 -32 2 -58 5 -58 3 0 6 -12 6 -28 2 -42 16 -176 19 -182 2 -3
7 -37 10 -75 4 -39 9 -73 11 -76 3 -6 8 -32 19 -112 4 -27 8 -57 10 -67 2 -9
6 -33 9 -51 3 -19 8 -45 11 -59 3 -14 7 -39 10 -56 2 -17 10 -58 18 -90 20
-80 31 -136 30 -151 0 -7 3 -13 8 -13 4 0 6 -9 4 -20 -2 -11 -1 -20 3 -20 4 0
8 -9 9 -21 4 -52 128 -437 172 -534 5 -11 21 -47 36 -80 42 -95 133 -274 145
-285 3 -3 19 -27 35 -55 32 -56 76 -118 88 -123 4 -2 7 -8 7 -14 0 -34 345
-398 378 -398 4 0 14 -9 22 -20 8 -11 18 -20 23 -20 5 0 23 -11 41 -25 18 -14
38 -25 43 -25 6 0 13 -7 17 -15 3 -8 15 -15 26 -15 11 0 20 -3 20 -8 0 -4 15
-13 33 -21 17 -8 55 -24 82 -36 28 -12 77 -30 110 -39 33 -10 74 -21 90 -26
17 -5 48 -12 70 -15 22 -4 51 -8 65 -10 104 -18 332 -23 470 -11 81 7 250 39
271 51 5 4 20 8 34 11 13 2 45 14 72 26 26 12 50 22 53 22 12 3 126 71 138 83
7 7 17 13 22 13 19 0 187 178 237 251 43 63 153 266 153 283 0 3 5 17 12 33 6
15 12 33 14 38 1 6 12 37 24 70 23 62 31 91 32 113 1 6 6 12 11 12 6 0 8 3 4
6 -3 3 1 27 8 52 8 26 16 61 19 77 3 17 8 41 11 55 3 14 8 34 10 45 3 11 7 31
10 45 12 51 17 86 18 118 1 17 4 32 7 32 3 0 6 10 7 23 0 12 4 47 8 77 4 30 8
66 10 80 2 14 4 25 5 25 1 0 3 20 5 45 2 25 4 45 4 45 3 0 21 238 26 340 23
445 23 1416 0 1805 -14 237 -25 363 -40 465 -2 11 -4 25 -4 31 -1 5 -7 19 -15
29 -13 18 -14 18 -25 -4 -14 -25 -17 -40 -32 -126 -18 -107 -27 -173 -35 -250
-4 -33 -8 -73 -10 -90 -2 -16 -6 -59 -9 -95 -2 -35 -7 -78 -9 -95 -3 -16 -7
-66 -11 -110 -3 -44 -8 -96 -11 -115 -3 -19 -7 -64 -10 -100 -2 -36 -6 -81 -9
-100 -2 -19 -7 -64 -10 -100 -3 -36 -8 -85 -11 -110 -2 -25 -6 -70 -9 -100 -5
-56 -10 -103 -21 -195 -3 -27 -7 -66 -9 -85 -2 -19 -5 -53 -8 -75 -3 -22 -9
-65 -12 -95 -4 -30 -8 -66 -10 -80 -2 -14 -7 -50 -10 -80 -3 -30 -8 -66 -10
-80 -3 -14 -7 -50 -10 -80 -3 -30 -8 -68 -12 -85 -3 -16 -6 -40 -6 -52 -1 -13
-3 -23 -7 -23 -3 0 -5 -12 -6 -28 -1 -41 -14 -121 -41 -262 -4 -19 -7 -47 -7
-62 -1 -16 -4 -28 -8 -28 -4 0 -7 -8 -7 -17 -2 -43 -6 -63 -11 -63 -3 0 -6 -8
-7 -17 -1 -28 -10 -76 -16 -93 -3 -8 -13 -46 -22 -85 -20 -86 -23 -100 -25
-100 -1 0 -3 -7 -5 -15 -8 -39 -58 -190 -75 -226 -11 -23 -22 -54 -26 -68 -3
-14 -10 -26 -15 -26 -5 0 -9 -7 -9 -15 0 -9 -11 -33 -25 -55 -14 -22 -25 -43
-25 -46 0 -17 -108 -150 -160 -197 -103 -93 -264 -161 -403 -172 -30 -2 -59
-5 -63 -6 -5 -1 -11 -1 -14 0 -3 1 -33 4 -67 5 -145 8 -333 73 -463 161 -29
19 -54 35 -56 35 -18 0 -210 193 -249 251 -16 24 -33 46 -37 47 -5 2 -8 8 -8
14 0 5 -9 23 -20 38 -19 27 -140 263 -140 274 0 3 -4 15 -9 28 -5 13 -8 26 -7
29 0 3 -4 12 -10 20 -6 8 -17 32 -23 54 -7 22 -16 49 -21 60 -10 22 -60 185
-61 197 0 4 -5 22 -10 40 -6 18 -12 44 -15 58 -3 14 -14 59 -24 100 -10 41
-21 89 -23 105 -3 17 -8 41 -11 55 -3 14 -8 41 -10 60 -3 19 -5 35 -6 35 -2 0
-9 37 -14 85 -3 25 -8 56 -11 70 -3 14 -7 45 -9 70 -3 25 -7 61 -10 80 -3 19
-8 64 -11 100 -3 36 -8 85 -11 110 -30 280 -37 1184 -10 1229 4 6 2 11 -4 11
-6 0 -9 4 -6 8 2 4 7 53 11 107 3 55 7 120 10 145 4 42 8 86 21 245 2 33 6 71
9 85 2 14 6 54 10 90 4 36 8 76 10 90 2 14 6 48 10 75 3 28 7 59 9 70 2 11 7
47 10 80 7 62 10 80 26 175 5 30 11 71 14 90 3 19 8 46 11 60 3 14 8 45 11 70
3 25 9 50 12 55 4 6 7 19 8 30 2 11 5 31 8 45 3 14 8 34 10 45 17 81 30 131
52 205 14 46 28 91 29 100 7 30 66 172 106 257 35 73 118 203 153 239 6 6 36
39 66 74 30 34 69 77 86 95 l31 33 99 -62 c90 -57 185 -104 224 -111 8 -2 16
-4 18 -5 3 -3 12 -6 57 -15 22 -4 49 -10 60 -12 11 -3 39 -6 61 -7 23 -2 46
-5 50 -8 5 -2 56 -3 114 -2 219 4 320 38 433 147 16 15 32 27 35 28 4 0 30 27
57 60 28 33 58 70 69 82 10 12 25 32 33 45 9 12 19 22 24 22 4 0 45 -18 91
-39 137 -64 420 -192 463 -209 22 -8 45 -18 50 -22 28 -18 235 -83 305 -94
159 -27 841 -28 980 -1 14 2 41 6 60 9 103 14 270 80 317 125 12 11 25 21 28
21 20 0 185 212 185 238 0 5 6 15 14 21 8 7 18 26 21 42 4 16 11 29 16 29 5 0
9 4 9 9 0 6 17 47 39 93 21 46 57 126 79 178 88 209 192 410 265 513 26 37 47
71 47 74 0 3 10 14 23 25 12 11 33 29 47 42 115 101 372 207 590 242 14 2 41
7 60 11 47 9 55 10 130 18 36 3 85 8 110 11 65 6 475 7 545 1 164 -15 269 -35
394 -73 82 -26 243 -100 249 -116 2 -4 8 -8 13 -8 11 0 88 -58 136 -103 73
-66 182 -189 183 -204 0 -6 3 -13 8 -15 18 -8 172 -246 172 -267 0 -6 4 -11 8
-11 4 0 13 -12 19 -27 6 -16 35 -68 63 -118 28 -49 53 -98 57 -107 3 -10 9
-18 14 -18 5 0 9 -9 9 -20 0 -11 4 -20 8 -20 5 0 14 -10 21 -22 34 -65 112
-178 122 -178 5 0 9 -5 9 -12 0 -13 86 -98 145 -144 72 -55 251 -124 360 -139
11 -2 34 -5 50 -8 34 -7 86 -14 160 -23 28 -3 59 -7 70 -9 11 -1 47 -6 80 -10
33 -4 64 -9 68 -12 5 -3 23 -7 40 -10 18 -3 40 -9 49 -14 9 -5 24 -9 32 -9 31
0 125 -51 144 -77 45 -64 83 -169 117 -323 2 -8 4 -16 5 -17 2 -2 3 -6 4 -10
2 -9 16 -79 22 -108 2 -11 6 -31 9 -45 7 -31 12 -54 19 -105 3 -22 8 -49 10
-60 2 -11 7 -45 11 -75 4 -30 9 -64 12 -75 2 -11 5 -38 7 -60 4 -36 10 -88 21
-155 2 -14 7 -50 10 -80 3 -30 8 -77 11 -105 3 -27 8 -70 10 -95 2 -25 6 -67
8 -95 9 -96 25 -291 31 -390 2 -38 7 -101 10 -140 3 -38 7 -110 10 -160 2 -49
7 -160 11 -245 4 -85 8 -219 8 -297 1 -79 3 -143 6 -143 8 0 4 -1339 -4 -1480
-3 -63 -9 -133 -12 -155 -3 -22 -7 -49 -9 -60 -6 -42 -16 -102 -21 -125 -3
-14 -7 -34 -8 -45 -2 -11 -4 -20 -5 -20 -2 0 -4 -9 -6 -20 -3 -17 -26 -98 -41
-145 -3 -8 -6 -17 -6 -20 -6 -41 -117 -314 -141 -345 -4 -5 -23 -31 -41 -56
-19 -25 -48 -52 -65 -59 -17 -7 -31 -16 -31 -20 0 -4 -8 -10 -17 -13 -10 -3
-63 -22 -118 -42 -55 -20 -111 -38 -125 -41 -14 -2 -59 -13 -100 -24 -41 -11
-88 -22 -105 -24 -16 -3 -66 -12 -110 -20 -44 -8 -105 -18 -135 -22 -68 -8
-95 -12 -95 -14 0 0 -27 -3 -60 -7 -110 -10 -120 -11 -120 -12 0 -1 -29 -4
-65 -6 -36 -2 -87 -7 -115 -10 -57 -6 -171 -13 -325 -20 -58 -2 -105 -5 -105
-5 0 -1 -40 -3 -90 -5 -165 -6 -371 -15 -419 -20 -64 -5 -60 -2 194 125 243
121 210 104 340 181 394 234 639 510 862 969 67 137 84 174 118 255 12 28 23
58 25 70 2 6 8 30 15 55 7 25 14 54 16 65 2 11 6 31 9 45 15 77 25 204 31 386
3 87 6 170 8 184 1 14 -2 35 -6 47 -4 12 -4 24 0 27 18 11 1 487 -22 634 -3
17 -8 44 -10 60 -2 15 -9 47 -15 71 -5 25 -8 49 -5 53 3 4 1 8 -4 8 -6 0 -12
15 -15 33 -6 37 -6 39 -36 137 -23 74 -67 193 -98 260 -61 135 -161 322 -175
328 -4 2 -8 10 -8 18 0 8 -4 14 -10 14 -5 0 -10 5 -10 12 0 6 -11 26 -25 44
-14 18 -25 37 -25 42 0 6 -7 12 -15 16 -8 3 -15 12 -15 20 0 8 -3 16 -7 18 -5
2 -30 31 -58 66 -78 98 -176 203 -278 297 -68 64 -77 71 -147 125 -25 19 -47
37 -50 40 -3 3 -21 17 -40 30 -19 14 -39 28 -45 33 -23 19 -117 77 -125 77 -5
0 -10 4 -12 8 -6 14 -175 104 -318 170 -117 53 -322 123 -435 149 -37 8 -50
11 -50 13 0 1 -11 3 -25 6 -14 2 -56 11 -95 19 -38 8 -92 17 -120 20 -27 3
-61 8 -75 10 -97 17 -370 23 -530 11 -128 -9 -183 -16 -294 -37 -26 -5 -52 -6
-57 -3 -5 3 -9 1 -9 -4 0 -6 -24 -14 -52 -18 -56 -8 -66 -10 -70 -14 -2 -1
-10 -3 -18 -5 -8 -2 -25 -6 -37 -9 -13 -3 -31 -8 -42 -10 -10 -2 -65 -21 -122
-41 -57 -20 -108 -38 -114 -39 -5 -1 -27 -10 -49 -19 -21 -9 -41 -17 -44 -17
-6 0 -276 -134 -307 -153 -42 -25 -171 -111 -185 -124 -8 -7 -33 -27 -55 -44
-151 -115 -334 -298 -494 -494 -9 -11 -37 -49 -64 -85 -26 -36 -51 -69 -55
-75 -4 -5 -22 -32 -40 -60 -18 -27 -37 -57 -42 -65 -72 -104 -248 -466 -274
-565 -18 -67 -29 -102 -37 -111 -5 -6 -7 -13 -4 -16 3 -3 -1 -32 -9 -64 -14
-55 -21 -93 -32 -169 -37 -245 -36 -628 1 -873 3 -17 8 -49 11 -70 3 -20 7
-44 9 -52 2 -8 7 -28 10 -45 2 -16 7 -41 10 -55 3 -14 8 -36 11 -50 8 -39 81
-253 104 -307 12 -26 35 -75 51 -108 16 -33 29 -66 29 -73 0 -6 3 -12 8 -12 4
0 18 -24 32 -53 14 -28 28 -54 31 -57 3 -3 14 -21 24 -40 33 -64 164 -260 220
-327 6 -7 15 -18 20 -25 12 -16 82 -101 116 -141 65 -76 231 -236 314 -302 28
-22 52 -43 53 -47 2 -5 9 -8 15 -8 7 -1 27 -14 46 -30 19 -16 38 -27 43 -24 4
3 8 1 8 -4 0 -6 17 -19 38 -30 133 -70 182 -103 182 -123 0 -35 -54 -60 -160
-74 -90 -12 -116 -15 -135 -19 -11 -2 -56 -7 -100 -11 -44 -4 -93 -9 -110 -11
-16 -2 -64 -6 -105 -8 -41 -3 -75 -6 -75 -7 0 0 -16 -2 -35 -4 -19 -1 -75 -6
-125 -9 -49 -4 -119 -10 -155 -12 -36 -3 -90 -6 -120 -9 -30 -2 -100 -6 -155
-10 -55 -3 -118 -8 -140 -11 -22 -3 -62 -7 -90 -9 -71 -5 -167 -15 -190 -20
-11 -2 -24 -4 -30 -5 -24 -2 28 -21 69 -24 24 -2 49 -7 55 -10 6 -4 21 -7 34
-6 12 1 24 1 27 0 6 -2 101 -8 215 -15 44 -2 80 -4 80 -5 0 -1 50 -2 110 -3
61 -2 116 -6 123 -10 6 -5 12 -4 12 0 0 5 17 7 38 5 32 -4 1349 -6 1472 -3 25
1 52 1 60 1 8 0 65 2 125 5 61 2 158 6 217 8 58 3 111 8 117 11 6 4 15 5 19 2
13 -8 155 23 191 41 33 18 181 154 181 167 0 13 -114 117 -165 151 -80 54
-150 90 -375 198 -47 23 -88 41 -91 42 -3 0 -21 8 -40 17 -19 9 -83 38 -144
64 -112 48 -304 143 -385 190 -59 34 -214 135 -220 144 -3 4 -12 11 -21 16
-67 37 -379 343 -379 371 0 3 -11 19 -25 37 -37 45 -37 46 -73 99 -18 26 -32
50 -32 52 0 3 -17 33 -38 67 -45 74 -162 310 -162 327 0 6 -4 11 -10 11 -5 0
-10 8 -10 18 0 10 -6 26 -14 37 -7 11 -14 22 -14 25 0 3 -3 12 -6 20 -35 103
-54 192 -62 295 -11 128 -5 730 6 730 1 0 3 15 5 34 7 71 38 182 71 258 8 17
14 33 14 36 0 3 19 45 42 94 23 48 43 94 45 102 1 8 6 17 10 20 5 3 17 22 26
41 35 71 149 256 187 303 5 7 41 51 80 99 156 193 352 364 574 501 70 43 338
177 355 177 6 0 19 4 29 10 21 11 154 58 185 64 12 3 33 8 47 11 109 28 231
52 310 61 30 3 66 7 80 10 37 5 359 6 400 0 19 -2 64 -8 100 -11 36 -4 68 -9
71 -11 4 -2 31 -6 60 -10 30 -3 62 -10 71 -15 9 -5 21 -8 25 -7 7 2 39 -6 123
-27 3 -1 12 -4 20 -8 14 -5 119 -40 130 -42 3 -1 18 -7 33 -13 16 -7 30 -12
33 -12 2 0 26 -10 52 -21 394 -177 673 -392 947 -726 6 -7 15 -19 22 -26 54
-66 186 -276 200 -319 3 -10 9 -18 14 -18 5 0 9 -6 9 -14 0 -8 9 -31 19 -53
72 -145 147 -388 175 -573 20 -128 22 -140 30 -275 6 -91 10 -232 7 -245 -1
-3 -3 -57 -6 -120 -7 -172 -20 -298 -39 -375 -2 -5 -6 -28 -11 -50 -4 -22 -10
-44 -14 -50 -3 -5 -6 -16 -7 -23 -2 -8 -6 -21 -10 -30 -4 -9 -8 -22 -9 -28 -4
-18 -107 -249 -114 -254 -3 -3 -21 -34 -38 -70 -37 -73 -132 -223 -145 -228
-4 -2 -8 -10 -8 -18 0 -8 -4 -14 -10 -14 -5 0 -10 -6 -10 -14 0 -8 -3 -16 -7
-18 -5 -1 -42 -46 -84 -98 -129 -161 -331 -367 -482 -493 -41 -34 -75 -61
-197 -157 -18 -14 -41 -29 -51 -34 -11 -5 -19 -13 -19 -18 0 -4 -7 -8 -15 -8
-8 0 -15 -4 -15 -10 0 -5 -6 -10 -14 -10 -8 0 -16 -4 -18 -8 -5 -13 -332 -212
-348 -212 -5 0 -10 -4 -12 -8 -1 -5 -28 -22 -58 -39 -30 -18 -73 -48 -95 -67
l-40 -36 24 -20 c13 -11 31 -20 40 -20 10 0 21 -3 25 -7 3 -4 19 -8 34 -9 297
-20 354 -23 657 -30 513 -12 1408 -6 1570 11 57 6 169 22 203 30 47 11 58 14
99 29 244 88 419 243 545 486 41 79 142 326 153 375 2 6 12 42 23 80 21 74 37
140 57 237 3 13 7 41 11 63 3 22 10 45 15 51 5 6 7 13 4 16 -3 3 -1 27 4 54 6
27 13 65 16 84 2 19 7 46 9 60 2 14 7 48 11 75 3 28 8 64 11 80 2 17 6 53 9
80 2 28 7 73 10 100 3 28 8 73 10 100 3 28 7 73 9 100 3 28 8 102 11 165 4 63
9 138 10 165 16 230 22 984 10 1270 -7 195 -22 482 -31 620 -3 44 -6 115 -7
157 -1 43 -4 78 -7 78 -3 0 -7 28 -8 63 -2 34 -5 78 -7 97 -3 19 -7 69 -10
110 -3 41 -7 91 -10 110 -3 19 -7 62 -10 95 -3 33 -8 78 -11 100 -5 43 -10 90
-19 170 -8 66 -11 90 -20 155 -5 30 -9 64 -11 75 -1 11 -3 20 -4 20 -1 0 -3
11 -4 25 -1 14 -5 39 -9 55 -4 17 -9 46 -12 65 -4 19 -11 55 -16 80 -6 25 -12
52 -14 61 -2 9 -15 52 -28 95 -88 277 -221 425 -467 523 -41 16 -87 32 -102
35 -15 2 -32 7 -38 11 -5 3 -18 8 -28 10 -9 1 -35 8 -57 13 -22 6 -52 14 -67
17 -16 3 -39 7 -53 10 -14 3 -35 7 -47 9 -47 8 -104 19 -123 23 -11 2 -45 8
-75 13 -85 13 -149 29 -180 45 -37 19 -104 89 -125 128 -8 18 -20 39 -25 47
-33 52 -70 123 -70 135 0 7 -3 15 -7 17 -5 2 -30 48 -58 103 -27 55 -54 103
-58 106 -5 3 -8 9 -8 13 3 12 -108 199 -121 204 -5 2 -8 8 -8 14 0 14 -102
158 -112 158 -4 0 -8 5 -8 10 0 6 -4 16 -10 23 -110 134 -236 259 -335 336
-44 34 -86 66 -92 72 -7 5 -13 6 -13 2 0 -4 -4 -3 -8 3 -4 7 -23 21 -42 33
-40 24 -249 131 -253 129 -1 -1 -39 12 -84 30 -45 17 -101 36 -125 42 -24 6
-50 14 -58 17 -20 8 -28 10 -80 17 -25 4 -54 10 -64 13 -10 3 -33 6 -50 8 -17
1 -56 5 -86 9 -30 4 -80 9 -110 12 -60 6 -607 13 -612 9z"/>
<path d="M7091 8845 c-1 -6 -28 -11 -61 -13 -33 -2 -75 -5 -92 -7 -18 -3 -60
-8 -93 -11 -33 -3 -68 -10 -77 -15 -10 -5 -18 -7 -18 -5 0 17 -395 -143 -411
-167 -3 -5 -10 -8 -15 -8 -5 0 -56 -26 -114 -59 -112 -63 -223 -146 -228 -171
-4 -20 49 -49 132 -70 62 -16 220 -31 354 -33 23 0 42 -4 42 -9 0 -4 6 -5 13
0 6 4 32 6 57 4 79 -7 1578 -4 1795 3 313 10 404 15 489 29 47 8 15 60 -89
143 -162 129 -430 267 -600 310 -24 6 -177 33 -183 33 -4 -1 -9 0 -12 1 -11 4
-39 8 -115 14 -44 4 -98 9 -120 12 -22 2 -81 6 -132 8 -50 2 -96 7 -102 11 -6
3 -11 1 -11 -5 0 -6 -5 -8 -10 -5 -10 6 -295 8 -357 2 -18 -2 -35 2 -37 7 -3
7 -5 7 -5 1z"/>
<path d="M7056 6443 c-2 -2 -39 -6 -82 -9 -106 -6 -138 -10 -239 -30 -71 -14
-234 -70 -325 -112 -30 -14 -58 -26 -62 -26 -4 -1 -13 -7 -20 -13 -6 -7 -17
-13 -23 -13 -15 0 -171 -105 -235 -159 -108 -91 -242 -233 -306 -326 -51 -75
-90 -132 -100 -150 -49 -88 -65 -121 -96 -195 -31 -72 -68 -173 -84 -230 -2
-8 -13 -55 -23 -104 -11 -48 -22 -95 -25 -103 -4 -8 -1 -11 5 -7 8 4 8 1 2
-12 -24 -48 -23 -338 2 -466 3 -16 7 -38 9 -50 2 -13 9 -35 15 -50 6 -16 9
-28 6 -28 -12 0 101 -242 116 -248 5 -2 9 -8 9 -13 0 -34 190 -269 217 -269
34 1 48 59 31 130 -22 92 -38 153 -45 170 -8 20 -9 23 -34 110 -26 92 -29 106
-34 150 -2 19 -7 58 -10 85 -10 75 -10 230 0 315 10 92 13 115 15 115 1 0 4
14 6 30 6 36 38 150 52 185 5 14 10 28 11 33 0 4 8 23 16 43 8 20 15 38 15 41
0 28 191 354 234 399 6 6 23 26 38 45 93 119 246 268 348 339 19 13 37 27 40
30 8 9 128 80 135 80 4 0 18 9 32 20 14 11 33 20 42 20 10 0 22 5 29 12 10 10
106 50 147 62 6 1 30 9 55 16 57 17 60 18 90 24 14 3 39 9 55 13 69 16 137 27
245 37 220 22 245 26 288 40 40 13 -9 42 -92 52 -16 3 -41 7 -55 10 -27 7
-409 13 -415 7z"/>
</g>
</svg>
